<svg width="97" height="82" viewBox="0 0 97 82" fill="none" xmlns="http://www.w3.org/2000/svg">
<g clip-path="url(#clip0_27_2)">
<rect width="97" height="26" transform="translate(0 56)" fill="black"/>
<path d="M9.86719 70.5098V64.4688H10.9395V70.5098C10.9395 71.0723 10.8418 71.5469 10.6465 71.9336C10.4512 72.3203 10.1797 72.6152 9.83203 72.8184C9.48828 73.0176 9.0918 73.1172 8.64258 73.1172C8.20117 73.1172 7.80664 73.0273 7.45898 72.8477C7.11133 72.668 6.83789 72.3945 6.63867 72.0273C6.44336 71.6602 6.3457 71.1973 6.3457 70.6387H7.42383C7.42383 70.998 7.47656 71.293 7.58203 71.5234C7.69141 71.7539 7.83789 71.9238 8.02148 72.0332C8.20508 72.1426 8.41211 72.1973 8.64258 72.1973C8.87695 72.1973 9.08594 72.1348 9.26953 72.0098C9.45312 71.8809 9.59766 71.6914 9.70312 71.4414C9.8125 71.1875 9.86719 70.877 9.86719 70.5098ZM18.2695 67.9961V69.4785C18.2695 70.0801 18.2031 70.6094 18.0703 71.0664C17.9414 71.5195 17.752 71.8984 17.502 72.2031C17.252 72.5078 16.9512 72.7363 16.5996 72.8887C16.248 73.041 15.8516 73.1172 15.4102 73.1172C14.9844 73.1172 14.5957 73.041 14.2441 72.8887C13.8926 72.7363 13.5898 72.5078 13.3359 72.2031C13.082 71.8984 12.8848 71.5195 12.7441 71.0664C12.6074 70.6094 12.5391 70.0801 12.5391 69.4785V67.9961C12.5391 67.3945 12.6074 66.8672 12.7441 66.4141C12.8809 65.957 13.0762 65.5762 13.3301 65.2715C13.584 64.9668 13.8867 64.7383 14.2383 64.5859C14.5898 64.4297 14.9785 64.3516 15.4043 64.3516C15.8457 64.3516 16.2422 64.4297 16.5938 64.5859C16.9492 64.7383 17.25 64.9668 17.4961 65.2715C17.7461 65.5762 17.9375 65.957 18.0703 66.4141C18.2031 66.8672 18.2695 67.3945 18.2695 67.9961ZM17.2031 69.4785V67.9844C17.2031 67.5156 17.1641 67.1133 17.0859 66.7773C17.0078 66.4375 16.8926 66.1602 16.7402 65.9453C16.5879 65.7305 16.4004 65.5723 16.1777 65.4707C15.9551 65.3652 15.6973 65.3125 15.4043 65.3125C15.127 65.3125 14.877 65.3652 14.6543 65.4707C14.4355 65.5723 14.248 65.7305 14.0918 65.9453C13.9355 66.1602 13.8145 66.4375 13.7285 66.7773C13.6465 67.1133 13.6055 67.5156 13.6055 67.9844V69.4785C13.6055 69.9512 13.6465 70.3574 13.7285 70.6973C13.8145 71.0332 13.9355 71.3105 14.0918 71.5293C14.252 71.7441 14.4434 71.9043 14.666 72.0098C14.8887 72.1113 15.1367 72.1621 15.4102 72.1621C15.7031 72.1621 15.9609 72.1113 16.1836 72.0098C16.4102 71.9043 16.5977 71.7441 16.7461 71.5293C16.8984 71.3105 17.0117 71.0332 17.0859 70.6973C17.1641 70.3574 17.2031 69.9512 17.2031 69.4785ZM23.9531 64.4688H25.0312V70.4746C25.0312 71.1152 24.9082 71.6289 24.6621 72.0156C24.416 72.4023 24.0918 72.6836 23.6895 72.8594C23.291 73.0312 22.8613 73.1172 22.4004 73.1172C21.9082 73.1172 21.4648 73.0312 21.0703 72.8594C20.6758 72.6836 20.3613 72.4023 20.127 72.0156C19.8965 71.6289 19.7812 71.1152 19.7812 70.4746V64.4688H20.8535V70.4746C20.8535 70.9199 20.916 71.2676 21.041 71.5176C21.1699 71.7676 21.3496 71.9434 21.5801 72.0449C21.8145 72.1465 22.0879 72.1973 22.4004 72.1973C22.7168 72.1973 22.9902 72.1465 23.2207 72.0449C23.4551 71.9434 23.6348 71.7676 23.7598 71.5176C23.8887 71.2676 23.9531 70.9199 23.9531 70.4746V64.4688ZM26.6836 64.4688H29.0684C29.623 64.4688 30.0879 64.5664 30.4629 64.7617C30.8418 64.957 31.127 65.2461 31.3184 65.6289C31.5137 66.0078 31.6113 66.4746 31.6113 67.0293C31.6113 67.4199 31.5469 67.7773 31.418 68.1016C31.2891 68.4219 31.1016 68.6953 30.8555 68.9219C30.6094 69.1445 30.3105 69.3105 29.959 69.4199L29.666 69.543H27.5391L27.5273 68.623H29.0566C29.3848 68.623 29.6582 68.5527 29.877 68.4121C30.0957 68.2676 30.2598 68.0742 30.3691 67.832C30.4785 67.5898 30.5332 67.3223 30.5332 67.0293C30.5332 66.7012 30.4844 66.4141 30.3867 66.168C30.2891 65.9219 30.1328 65.7324 29.918 65.5996C29.707 65.4629 29.4238 65.3945 29.0684 65.3945H27.7617V73H26.6836V64.4688ZM30.7793 73L29.0801 69.1328L30.1992 69.127L31.9336 72.9297V73H30.7793ZM38.6309 64.4688V73H37.5469L34.1309 66.4199V73H33.0527V64.4688H34.1309L37.5645 71.0664V64.4688H38.6309ZM45.082 72.0801V73H41.3789V72.0801H45.082ZM41.5723 64.4688V73H40.4941V64.4688H41.5723ZM44.584 68.1367V69.0566H41.3789V68.1367H44.584ZM45.0234 64.4688V65.3945H41.3789V64.4688H45.0234ZM46.9395 64.4688L48.6797 68.752L50.4258 64.4688H51.6445L49.2188 69.8125V73H48.1406V69.8125L45.7148 64.4688H46.9395ZM58.0254 64.4688V73H56.959V64.4688H58.0254ZM60.2695 64.4688V65.3945H54.7207V64.4688H60.2695ZM66.9141 67.9961V69.4785C66.9141 70.0801 66.8477 70.6094 66.7148 71.0664C66.5859 71.5195 66.3965 71.8984 66.1465 72.2031C65.8965 72.5078 65.5957 72.7363 65.2441 72.8887C64.8926 73.041 64.4961 73.1172 64.0547 73.1172C63.6289 73.1172 63.2402 73.041 62.8887 72.8887C62.5371 72.7363 62.2344 72.5078 61.9805 72.2031C61.7266 71.8984 61.5293 71.5195 61.3887 71.0664C61.252 70.6094 61.1836 70.0801 61.1836 69.4785V67.9961C61.1836 67.3945 61.252 66.8672 61.3887 66.4141C61.5254 65.957 61.7207 65.5762 61.9746 65.2715C62.2285 64.9668 62.5312 64.7383 62.8828 64.5859C63.2344 64.4297 63.623 64.3516 64.0488 64.3516C64.4902 64.3516 64.8867 64.4297 65.2383 64.5859C65.5938 64.7383 65.8945 64.9668 66.1406 65.2715C66.3906 65.5762 66.582 65.957 66.7148 66.4141C66.8477 66.8672 66.9141 67.3945 66.9141 67.9961ZM65.8477 69.4785V67.9844C65.8477 67.5156 65.8086 67.1133 65.7305 66.7773C65.6523 66.4375 65.5371 66.1602 65.3848 65.9453C65.2324 65.7305 65.0449 65.5723 64.8223 65.4707C64.5996 65.3652 64.3418 65.3125 64.0488 65.3125C63.7715 65.3125 63.5215 65.3652 63.2988 65.4707C63.0801 65.5723 62.8926 65.7305 62.7363 65.9453C62.5801 66.1602 62.459 66.4375 62.373 66.7773C62.291 67.1133 62.25 67.5156 62.25 67.9844V69.4785C62.25 69.9512 62.291 70.3574 62.373 70.6973C62.459 71.0332 62.5801 71.3105 62.7363 71.5293C62.8965 71.7441 63.0879 71.9043 63.3105 72.0098C63.5332 72.1113 63.7812 72.1621 64.0547 72.1621C64.3477 72.1621 64.6055 72.1113 64.8281 72.0098C65.0547 71.9043 65.2422 71.7441 65.3906 71.5293C65.543 71.3105 65.6562 71.0332 65.7305 70.6973C65.8086 70.3574 65.8477 69.9512 65.8477 69.4785ZM71.8184 64.4688L73.5586 68.752L75.3047 64.4688H76.5234L74.0977 69.8125V73H73.0195V69.8125L70.5938 64.4688H71.8184ZM83.0156 67.9961V69.4785C83.0156 70.0801 82.9492 70.6094 82.8164 71.0664C82.6875 71.5195 82.498 71.8984 82.248 72.2031C81.998 72.5078 81.6973 72.7363 81.3457 72.8887C80.9941 73.041 80.5977 73.1172 80.1562 73.1172C79.7305 73.1172 79.3418 73.041 78.9902 72.8887C78.6387 72.7363 78.3359 72.5078 78.082 72.2031C77.8281 71.8984 77.6309 71.5195 77.4902 71.0664C77.3535 70.6094 77.2852 70.0801 77.2852 69.4785V67.9961C77.2852 67.3945 77.3535 66.8672 77.4902 66.4141C77.627 65.957 77.8223 65.5762 78.0762 65.2715C78.3301 64.9668 78.6328 64.7383 78.9844 64.5859C79.3359 64.4297 79.7246 64.3516 80.1504 64.3516C80.5918 64.3516 80.9883 64.4297 81.3398 64.5859C81.6953 64.7383 81.9961 64.9668 82.2422 65.2715C82.4922 65.5762 82.6836 65.957 82.8164 66.4141C82.9492 66.8672 83.0156 67.3945 83.0156 67.9961ZM81.9492 69.4785V67.9844C81.9492 67.5156 81.9102 67.1133 81.832 66.7773C81.7539 66.4375 81.6387 66.1602 81.4863 65.9453C81.334 65.7305 81.1465 65.5723 80.9238 65.4707C80.7012 65.3652 80.4434 65.3125 80.1504 65.3125C79.873 65.3125 79.623 65.3652 79.4004 65.4707C79.1816 65.5723 78.9941 65.7305 78.8379 65.9453C78.6816 66.1602 78.5605 66.4375 78.4746 66.7773C78.3926 67.1133 78.3516 67.5156 78.3516 67.9844V69.4785C78.3516 69.9512 78.3926 70.3574 78.4746 70.6973C78.5605 71.0332 78.6816 71.3105 78.8379 71.5293C78.998 71.7441 79.1895 71.9043 79.4121 72.0098C79.6348 72.1113 79.8828 72.1621 80.1562 72.1621C80.4492 72.1621 80.707 72.1113 80.9297 72.0098C81.1562 71.9043 81.3438 71.7441 81.4922 71.5293C81.6445 71.3105 81.7578 71.0332 81.832 70.6973C81.9102 70.3574 81.9492 69.9512 81.9492 69.4785ZM88.6992 64.4688H89.7773V70.4746C89.7773 71.1152 89.6543 71.6289 89.4082 72.0156C89.1621 72.4023 88.8379 72.6836 88.4355 72.8594C88.0371 73.0312 87.6074 73.1172 87.1465 73.1172C86.6543 73.1172 86.2109 73.0312 85.8164 72.8594C85.4219 72.6836 85.1074 72.4023 84.873 72.0156C84.6426 71.6289 84.5273 71.1152 84.5273 70.4746V64.4688H85.5996V70.4746C85.5996 70.9199 85.6621 71.2676 85.7871 71.5176C85.916 71.7676 86.0957 71.9434 86.3262 72.0449C86.5605 72.1465 86.834 72.1973 87.1465 72.1973C87.4629 72.1973 87.7363 72.1465 87.9668 72.0449C88.2012 71.9434 88.3809 71.7676 88.5059 71.5176C88.6348 71.2676 88.6992 70.9199 88.6992 70.4746V64.4688Z" fill="white"/>
<path d="M24.9922 33.4766V9.875H31.8359V33.4766C31.8359 35.7578 31.3984 37.7266 30.5234 39.3828C29.6641 41.0234 28.4922 42.2812 27.0078 43.1562C25.5234 44.0312 23.8516 44.4688 21.9922 44.4688C20.0859 44.4688 18.3828 44.0938 16.8828 43.3438C15.3984 42.5781 14.2266 41.4141 13.3672 39.8516C12.5078 38.2891 12.0781 36.3125 12.0781 33.9219H18.9688C18.9688 35.1406 19.0938 36.1016 19.3438 36.8047C19.5938 37.5078 19.9453 38.0156 20.3984 38.3281C20.8672 38.6406 21.3984 38.7969 21.9922 38.7969C22.6328 38.7969 23.1719 38.5859 23.6094 38.1641C24.0625 37.7422 24.4062 37.1406 24.6406 36.3594C24.875 35.5625 24.9922 34.6016 24.9922 33.4766ZM56.8672 38.5391V44H36.7578V39.3359L45.9922 27.5938C46.8828 26.375 47.5781 25.2969 48.0781 24.3594C48.5781 23.4219 48.9375 22.5859 49.1562 21.8516C49.375 21.1016 49.4844 20.3906 49.4844 19.7188C49.4844 18.7188 49.3672 17.8594 49.1328 17.1406C48.8984 16.4062 48.5469 15.8438 48.0781 15.4531C47.625 15.0469 47.0625 14.8438 46.3906 14.8438C45.5781 14.8438 44.9062 15.0938 44.375 15.5938C43.8438 16.0938 43.4453 16.7812 43.1797 17.6562C42.9297 18.5156 42.8047 19.4922 42.8047 20.5859H36.2188C36.2188 18.5547 36.6328 16.6875 37.4609 14.9844C38.3047 13.2656 39.4844 11.9063 41 10.9062C42.5312 9.89063 44.3672 9.38281 46.5078 9.38281C48.5859 9.38281 50.3359 9.77344 51.7578 10.5547C53.1797 11.3359 54.25 12.4531 54.9688 13.9062C55.7031 15.3437 56.0703 17.0703 56.0703 19.0859C56.0703 20.2109 55.9219 21.3125 55.625 22.3906C55.3281 23.4531 54.9062 24.5156 54.3594 25.5781C53.8125 26.625 53.1328 27.6953 52.3203 28.7891C51.5234 29.8828 50.6328 31.0156 49.6484 32.1875L45.1953 38.5391H56.8672ZM76.9062 9.875H83.75V33.3125C83.75 35.9375 83.2656 38.0781 82.2969 39.7344C81.3438 41.375 80.0234 42.5781 78.3359 43.3438C76.6484 44.0938 74.7188 44.4688 72.5469 44.4688C70.3594 44.4688 68.4141 44.0938 66.7109 43.3438C65.0078 42.5781 63.6797 41.375 62.7266 39.7344C61.7891 38.0781 61.3203 35.9375 61.3203 33.3125V9.875H68.1641V33.3125C68.1641 34.7969 68.3281 35.9375 68.6562 36.7344C69 37.5312 69.4922 38.0781 70.1328 38.375C70.7891 38.6562 71.5938 38.7969 72.5469 38.7969C73.5156 38.7969 74.3125 38.6562 74.9375 38.375C75.5781 38.0781 76.0625 37.5312 76.3906 36.7344C76.7344 35.9375 76.9062 34.7969 76.9062 33.3125V9.875Z" fill="#0097B2"/>
</g>
<defs>
<clipPath id="clip0_27_2">
<rect width="97" height="82" fill="white"/>
</clipPath>
</defs>
</svg>
