<?xml version="1.0"?>
<svg width="512" height="512" xmlns="http://www.w3.org/2000/svg" xmlns:svg="http://www.w3.org/2000/svg">
 <g class="layer">
  <title>Layer 1</title>
  <path d="m124.35,549.05l-27.16,9.61c-16.88,6.01 -12.34,-11.12 -10.72,-20.47c8.46,-48.72 34.14,-128.89 87.29,-145.05c-18.08,-18.86 1.64,-31.35 9.28,-48.07c-13.5,-2.52 -27.34,-1.63 -40.89,-0.13l-20.45,2.47c-16.55,2.17 -24.12,3.36 -17.94,-17.98c12.08,-41.73 37.29,-88.52 83.65,-97.63c10.73,-2.11 28.72,-3.41 38.64,-1.17l31.92,6.56l1.39,-1.66c35.71,-42.63 76.85,-81.63 125.55,-108.96c52.21,-29.31 98.47,-43.22 157.19,-48.4l13.89,-0.02c11.63,0.31 13.29,6.6 13.2,16.26c-0.19,21.59 -3.51,41.96 -8.85,62.93c-19.48,76.46 -65.16,137.95 -120.92,192.15l-35.28,31.87l2.61,6c8.86,23.11 10.26,56.59 0.19,78.92c-14.01,31.05 -49.66,53.66 -81,65.56c-5.67,2.15 -23.66,9.6 -28.98,7c-8.55,-4.19 -3.71,-12.35 -1.29,-18.6c5.52,-14.28 11,-29.22 14.09,-44.21c1.93,-9.33 1.46,-12.93 -1.89,-21.97c-7.14,6.17 -24.04,20.23 -33.6,22.06c-10.12,1.93 -18.59,-4.63 -26.48,-9.92l-3.32,8.06c-9.46,20.41 -22.65,30.78 -41.78,41.34c-25.01,13.81 -51.58,23.68 -78.34,33.45zm422.4,-455.15c-4.66,0.24 -9.38,0.24 -13.99,1.01l-14.06,1.84c-17.33,2.59 -34.9,5.71 -51.63,10.99c8.05,16.78 20.68,32.12 33.81,45.21c10.89,10.6 22.88,19.45 36.28,26.61c9.42,-27.73 15.66,-56.4 16.21,-85.75c-2.14,0.02 -4.5,-0.16 -6.62,0.09zm-95.9,19.69c-42.52,16.25 -75.88,34.91 -110.92,63.83l-37.33,34.42c-22.64,22.96 -43.26,47.28 -62.32,73.29l-26.13,37.98c-5.16,8.14 -10.12,16.05 -14.09,24.85c8.86,22.08 32.88,40.14 50.8,54.72c11.19,9.11 21.88,18.66 35.09,24.82c5.57,2.37 11.47,4.75 17.5,5.55c6.77,-2.88 12.92,-7.09 19.09,-11.06l29.86,-20.35c73.17,-52.48 143.25,-123 178.94,-206.94l-0.37,-0.18c-30.51,-15.62 -56.74,-42.08 -73.94,-71.45l-3.89,-6.94c-0.7,-1.31 -0.72,-2.59 -2.29,-2.54zm-248.76,132.1c-47.98,3.8 -69.63,45.34 -82.69,86.49c14.9,-2.05 29.13,-4.49 44.2,-4.45c7.16,-0.01 14.51,-0.08 21.53,1.5l6.19,1.62c4.08,-7.74 8.87,-15.15 13.62,-22.5l41.78,-57.82l-21.36,-4.37c-3.22,-0.71 -7.06,-0.5 -10.36,-0.51l-12.91,0.04zm-12.05,117.89c-2.54,4.46 -5.73,8.57 -7.52,13.41c4.25,11.32 14.67,20.27 23.15,28.44l37.69,35.68c6.11,5.86 19.1,18.94 28.04,19.41c3.03,-1.27 5.73,-2.86 8.44,-4.69l11.82,-8.88c-19.99,-4.86 -35.63,-19.07 -51.11,-31.79c-18.92,-15.55 -37.47,-30.57 -50.51,-51.58zm201.97,28.52l-50.71,36.76l-19.59,12.12c-0.88,0.53 -2.25,1.11 -2.9,1.9c7.98,16.43 8.75,15.31 5.64,33.03l-2.02,12.95c-1.16,5.88 -2.89,11.71 -4.87,17.38l-4.53,12.67l0.11,0.54c4.84,-1.1 10.06,-3.73 14.59,-5.72c51.63,-22.75 80.69,-52.98 66.97,-111.69l-2.69,-9.94zm-208.95,16.43c-19.99,4.24 -32.86,15.49 -44.03,32.63c-19.17,29.43 -30.59,64.11 -36.55,98.54l38.06,-13.64c18.11,-7.04 35.88,-14.39 52.99,-23.65c16.19,-8.75 29.12,-18.13 36.82,-35.55l3.59,-10.39c-8.45,-10.52 -18.15,-19.05 -27.83,-28.33c-3.37,-3.22 -19.61,-20.39 -23.05,-19.61z" fill="#0097b2" id="svg_1" transform="matrix(1 0 0 1 0 0) scale(0.8 0.8)"/>
  <path d="m415.39,278.29c-30,3.11 -54,-22.07 -53.33,-51.59c0.61,-26.39 21.08,-45.85 46.93,-48.13l0.07,-0.01c44.29,-3.02 70.94,48.96 42.03,82.57c-9.37,10.89 -21.5,16.14 -35.7,17.16zm-5.48,-83.79c-47.08,4.81 -39.43,71.8 5.79,68.03c45.3,-5.47 38.73,-70.63 -5.79,-68.03zm-199.22,282.31c-16.11,14.62 -38.82,24.68 -59.51,30.24c-17.65,4.74 -29.3,5.65 -22.78,-16.64c3.65,-12.46 17.92,-46.38 32.8,-49.08l2.86,0.3c5.33,1.15 7.56,6.37 5.07,11.18c-2.04,3.94 -6.85,6.75 -9.89,9.98c-6.65,7.09 -12.42,20.18 -15.18,29.28c17.17,-3.44 41.04,-13.95 54.1,-25.77c3.32,-3 6.55,-8.11 11.36,-8.45c13.11,-0.94 7.88,12.57 1.17,18.96z" fill="#0097b2" id="svg_2" transform="scale(0.8 0.8)"/>
 </g>
</svg>