<?xml version="1.0"?>
<svg width="512" height="512" xmlns="http://www.w3.org/2000/svg" xmlns:svg="http://www.w3.org/2000/svg">
 <g class="layer">
  <title>Layer 1</title>
  <path d="m256.86,270.69c-8.51,0.03 -27.97,2.3 -33.15,10.41c-1.93,3.01 -3.34,13.81 -4.76,18.47l-5.13,14.94c-2.21,6.22 -4.42,12.44 -7.34,18.37c-16.7,33.92 -56.63,53.63 -93.73,46.89c-6.35,-1.16 -12.21,-2.75 -18.01,-5.64c-5.31,9.32 -9.24,19.17 -11.91,29.56l-3.93,17.71c-8.1,34.46 -59.14,25.42 -62.05,-0.45c-2.52,-22.42 6.16,-63.7 11.65,-84.93l8.81,-32.86c1.42,-6.15 1.02,-11.74 1.41,-17.99c1.87,-29.86 17.43,-70.07 27.22,-98.23l9.68,-27.13c5.49,-14.6 6.54,-17.39 20.83,-26.43c2.48,-1.57 3.46,-1.63 4.23,-4.46l1.49,-5c2.44,-7.27 5.78,-14.59 10.64,-20.58c26.42,-32.58 78.91,-24.12 92.82,15.61c1.55,4.45 2.53,9.02 3.43,13.63c0.73,3.71 0.23,6.92 3.35,9.41l4.36,3.52c0.93,-1.54 1.23,-3.89 1.47,-5.67l0.94,-7.3c2.74,-19.56 10.8,-51.54 35.01,-53.94c25.25,-1.43 34.74,29.33 37.96,49.07c0.93,5.66 0.96,12.16 3.17,17.46c8.06,-4.93 7.19,-7.89 8.6,-15.95c9.52,-54.73 81.61,-62.74 103.64,-11.64l3.22,8.46c1.62,4.93 0.62,4.29 5.09,7.38c13.24,9.15 15.02,11.69 20.37,26l25.15,73.09c5.11,16.2 11.01,34.46 11.75,51.6c0.62,14.31 0.09,16.16 4.32,29.77l3.62,12.76c5.68,21.75 10.56,43.76 12.91,66.15l0.79,11.17c0.35,5.1 1.51,14.34 -0.02,19.27c-7.68,24.68 -47.82,29.33 -59.23,5.28c-2.02,-4.26 -2.91,-8.97 -3.9,-13.55l-4.12,-17.56c-2.36,-8.31 -5.85,-15.57 -10.28,-22.93c-44.43,19.23 -101.63,-5.43 -116.18,-52.24c-0.86,-2.78 -1.39,-5.7 -2.42,-8.43c-1.91,-5.01 -4.5,-9.51 -6.02,-14.71c-3.39,-11.62 0.27,-17.7 -12.37,-23.66c-7.44,-3.5 -15.26,-4.6 -23.38,-4.7zm-1.64,-175.88c-16.55,4.63 -18.6,30.59 -20.32,44.39c4.19,-1.02 18.18,-3.71 22.4,-2.64c6.8,0.06 13.61,0.53 20.05,2.92c-1.27,-12.73 -6.19,-45.29 -22.13,-44.67zm-101.49,4.3c-15.68,0.86 -28.62,10.85 -34.74,25.02c13.93,-3.67 22.25,-4.95 36.55,-4.4l5.82,0.5c10.81,1.42 20.56,4.23 30.31,9.07c-4.81,-18.22 -18.81,-30.47 -37.94,-30.19zm200.76,0.24c-16.46,1.34 -30.75,13.02 -34.01,29.44c10.96,-4.6 22.34,-8.25 34.33,-8.84c13.39,-0.67 25.76,-0.3 38.62,3.94c-8.85,-14.05 -20.2,-26.72 -38.94,-24.54zm8.28,36.33c-13.59,-0.03 -27.68,3.42 -39.83,9.47c-4.72,2.36 -16.36,8.32 -16.34,14.52l0.19,88.4c8.5,-21.45 31.3,-36.1 52.04,-43.64c23.57,-6.76 48.03,-4.08 69.69,7.82l11.43,7.21c-1.03,-4.76 -2.77,-9.29 -4.33,-13.89l-15.41,-43.19c-2.88,-7.87 -3.2,-9.51 -10.56,-14.25c-14.26,-9.18 -30.24,-12.36 -46.88,-12.45zm-220.74,0.13c-14.09,1.39 -27.4,4.63 -39.47,12.35c-6.5,4.15 -8.01,6.04 -10.53,13.24l-17.29,49.12c-0.96,3.04 -1.78,6.14 -2.43,9.26c18.56,-13.72 40.97,-21.77 64.37,-18.59l0.89,0.17c6.91,1.42 13.52,2.39 20.24,4.78c20.22,7.64 38.25,21.81 47.54,41.66c-0.39,-7.45 0.07,-15.02 0.09,-22.5l0.03,-61.86c0,-1.87 0.82,-5.6 -0.73,-7.01l-0.45,-0.36c-1.26,-0.98 -2.36,-2.21 -3.58,-3.26c-16.09,-13.72 -38,-17.96 -58.68,-17zm110.14,16.75c-9.65,0.59 -18.14,3.12 -26.89,7.19c-4.46,2.07 -3.91,1.07 -3.98,5.99l0.15,96.44c1.17,-0.87 2.91,-1.22 4.28,-1.8c10.62,-4.5 22.65,-6.66 34.19,-5.68l0.02,0.08c6.78,0.27 25.38,3.25 30.61,7.75l-0.12,-100.91c-3.52,-1.16 -6.87,-3.1 -10.32,-4.52c-9.31,-3.85 -17.98,-4.75 -27.94,-4.54zm-129.53,64.24c-42.32,3.51 -71.24,39.36 -67.79,81.29c3.37,40.9 38.3,68.22 78.21,66.89c20.3,-2.11 37.86,-10.83 50.97,-26.9c36.87,-45.21 9.63,-116 -50.61,-121.15c-3.56,-0.31 -7.2,-0.16 -10.78,-0.13zm261.24,0.02c-47.32,1.46 -80.31,43.08 -70.98,90.21c6.76,34.16 37.73,58.07 72.14,58c67.81,-2.26 97.16,-84.05 48.55,-129.44c-13.63,-12.72 -31.27,-18.71 -49.71,-18.77zm-336.91,111.88c-7.51,25.73 -12.63,52.17 -14.47,78.93c-0.21,3.07 -1.03,10.18 0.37,12.65c5.62,9.92 20.39,10.37 27.99,2.7c3.27,-4.25 3.46,-8.7 4.41,-13.84l2.82,-12.03c2.96,-10.29 6.82,-20.67 12.52,-29.76c-14.12,-9.32 -27.45,-22.61 -33.64,-38.65zm418.06,0.79c-7.04,14.56 -18.77,29.83 -33.39,37.56c4.13,7.51 7.44,15.16 10.01,23.34l3.74,13.92c1.49,6.77 1.5,14.02 6.25,19.48c9.45,9.05 28.51,3.61 28.25,-8.05c-0.59,-26.19 -7.08,-61.97 -14.86,-86.25z" fill="#0097b2" id="svg_1"/>
  <path d="m257.84,233.65c-32.71,1.5 -34.16,-45.72 -3.46,-48.55c12.13,-0.75 23.09,8.02 25.44,19.9l0.31,1.82c1.55,13.78 -8.8,25.33 -22.29,26.83zm-3.49,-32.37c-10.61,3.96 -7.39,18.76 3.53,16.29c10.17,-3.72 8.2,-16.68 -3.53,-16.29zm131.92,148.67l-8.02,-0.12c-26.3,-1.25 -48.94,-25.9 -51.81,-51.53c-3.36,-30.05 15.48,-58.58 45.68,-65.21c3.44,-0.75 7.27,-1.31 10.8,-1.1c3.13,-0.08 6.49,-0.17 9.58,0.25c46.46,6.19 65.58,64.19 34.95,98.32c-10.87,12.12 -25.15,18.48 -41.18,19.39zm-3.39,-102.1c-19.85,1.31 -37.39,15.27 -40.41,35.4c-3.93,26.27 15.57,52.47 43.16,50.89c19.8,-1.21 36.92,-15.92 40.23,-35.66c4.3,-25.59 -16.07,-52.45 -42.98,-50.63zm-250.57,102.1c-4.08,0.18 -8.37,0.33 -12.43,-0.18c-22.87,-2.89 -42.28,-21.04 -48.37,-42.96c-9.89,-35.6 14.41,-71.7 51.63,-74.71l0.18,-0.02c51.95,-3.98 81.27,56.96 49.84,96.09c-10.51,13.09 -24.48,19.97 -40.85,21.78zm-7.68,-102.1c-11.38,1.2 -22.04,6.17 -29.35,15.18c-23.78,29.31 -0.64,74.69 36.78,70.92c38.94,-5.4 52.01,-54.32 21.07,-77.42c-7.63,-5.69 -18.77,-10.14 -28.5,-8.68z" fill="#0097b2" id="svg_2"/>
 </g>
</svg>